<svg id="visual" viewBox="0 0 900 600" width="900" height="600" xmlns="http://www.w3.org/2000/svg" xmlns:xlink="http://www.w3.org/1999/xlink" version="1.1"><rect x="0" y="0" width="900" height="600" fill="#001220"></rect><path d="M0 407L21.5 399C43 391 86 375 128.8 378.5C171.7 382 214.3 405 257.2 404.8C300 404.7 343 381.3 385.8 369.3C428.7 357.3 471.3 356.7 514.2 365.7C557 374.7 600 393.3 642.8 398.2C685.7 403 728.3 394 771.2 393.8C814 393.7 857 402.3 878.5 406.7L900 411L900 601L878.5 601C857 601 814 601 771.2 601C728.3 601 685.7 601 642.8 601C600 601 557 601 514.2 601C471.3 601 428.7 601 385.8 601C343 601 300 601 257.2 601C214.3 601 171.7 601 128.8 601C86 601 43 601 21.5 601L0 601Z" fill="#6600ff"></path><path d="M0 472L21.5 464.2C43 456.3 86 440.7 128.8 433.5C171.7 426.3 214.3 427.7 257.2 427.8C300 428 343 427 385.8 423.8C428.7 420.7 471.3 415.3 514.2 422.5C557 429.7 600 449.3 642.8 453.8C685.7 458.3 728.3 447.7 771.2 435.2C814 422.7 857 408.3 878.5 401.2L900 394L900 601L878.5 601C857 601 814 601 771.2 601C728.3 601 685.7 601 642.8 601C600 601 557 601 514.2 601C471.3 601 428.7 601 385.8 601C343 601 300 601 257.2 601C214.3 601 171.7 601 128.8 601C86 601 43 601 21.5 601L0 601Z" fill="#7d01f0"></path><path d="M0 448L21.5 452C43 456 86 464 128.8 467C171.7 470 214.3 468 257.2 472.8C300 477.7 343 489.3 385.8 491.2C428.7 493 471.3 485 514.2 480.3C557 475.7 600 474.3 642.8 473.7C685.7 473 728.3 473 771.2 468.5C814 464 857 455 878.5 450.5L900 446L900 601L878.5 601C857 601 814 601 771.2 601C728.3 601 685.7 601 642.8 601C600 601 557 601 514.2 601C471.3 601 428.7 601 385.8 601C343 601 300 601 257.2 601C214.3 601 171.7 601 128.8 601C86 601 43 601 21.5 601L0 601Z" fill="#8d0be1"></path><path d="M0 525L21.5 525.8C43 526.7 86 528.3 128.8 527.8C171.7 527.3 214.3 524.7 257.2 516.7C300 508.7 343 495.3 385.8 491.2C428.7 487 471.3 492 514.2 496.7C557 501.3 600 505.7 642.8 509.2C685.7 512.7 728.3 515.3 771.2 518C814 520.7 857 523.3 878.5 524.7L900 526L900 601L878.5 601C857 601 814 601 771.2 601C728.3 601 685.7 601 642.8 601C600 601 557 601 514.2 601C471.3 601 428.7 601 385.8 601C343 601 300 601 257.2 601C214.3 601 171.7 601 128.8 601C86 601 43 601 21.5 601L0 601Z" fill="#9818d4"></path><path d="M0 528L21.5 532.8C43 537.7 86 547.3 128.8 546.7C171.7 546 214.3 535 257.2 531.5C300 528 343 532 385.8 539.7C428.7 547.3 471.3 558.7 514.2 563C557 567.3 600 564.7 642.8 563C685.7 561.3 728.3 560.7 771.2 557.7C814 554.7 857 549.3 878.5 546.7L900 544L900 601L878.5 601C857 601 814 601 771.2 601C728.3 601 685.7 601 642.8 601C600 601 557 601 514.2 601C471.3 601 428.7 601 385.8 601C343 601 300 601 257.2 601C214.3 601 171.7 601 128.8 601C86 601 43 601 21.5 601L0 601Z" fill="#9f24c7"></path></svg>